<svg aria-hidden="true" style="width:0;height:0;position:absolute;overflow:hidden" xmlns="http://www.w3.org/2000/svg"><defs><symbol id="icon-facebook" viewBox="0 0 16 32"><path d="M14.143 15.972h-4.034v14.865H3.997V15.972H1.09v-5.224h2.907V7.367c0-2.418 1.142-6.203 6.166-6.203l4.527.019v5.071h-3.285c-.539 0-1.296.271-1.296 1.424v3.075h4.567l-.534 5.219z"/></symbol><symbol id="logo" viewBox="0 0 130 32"><path fill="#fff" style="fill:var(--color1,#fff)" d="M32 16c0 8.837-7.017 16-15.673 16S.654 24.837.654 16 7.671 0 16.327 0 32 7.163 32 16z"/><path fill="#d41443" style="fill:var(--color2,#d41443)" d="M12.162.565C4.561 2.819 0 8.68 0 16.086c0 6.054 3.173 11.335 8.395 13.976 2.71 1.352 3.107.386.595-1.481-1.785-1.417-2.115-2.061-2.115-4.444 0-1.674-.397-3.027-.991-3.542-1.19-.966-1.322-3.478-.132-4.379.463-.386.925-1.675.992-2.834.33-4.251 5.024-8.244 9.717-8.244s9.386 3.993 9.717 8.244c.066 1.159.529 2.447.991 2.834 1.19.902 1.058 3.413-.132 4.379-.595.515-.992 1.868-.992 3.542 0 2.383-.33 3.027-2.115 4.444-2.776 2.125-1.983 2.898 1.124 1.03 4.363-2.641 7.601-8.372 7.601-13.46 0-10.176-10.84-18.419-20.491-15.586z"/><path fill="#d41443" style="fill:var(--color2,#d41443)" d="M12.945 7.504c-1.183.523-2.168 1.177-2.168 1.569 0 .719 3.548 2.027 5.586 2.027s5.585-1.308 5.585-2.027c0-.785-4.074-2.55-5.717-2.55-.657.065-2.168.458-3.286.981zM46.787 10.904c-.986.261-1.183 1.111-1.183 5.819v5.492h4.666l-.197-5.688c-.197-5.95-.46-6.407-3.286-5.623zM54.475 11.231c-2.169 1.177-2.957 2.615-2.957 5.427 0 3.857 2.103 5.688 5.98 5.427 2.628-.196 2.891-.392 3.088-2.027s.066-1.765-1.971-1.635c-2.103.196-2.169.065-2.169-2.092s.131-2.288 2.037-2.092c1.577.131 2.169-.131 2.431-1.111.131-.654 0-1.569-.394-1.961-.92-.915-4.337-.915-6.046.065zM62.295 11.296c-.197.523-.263 3.073-.131 5.754l.197 4.838h4.271c3.943 0 4.272-.131 4.468-1.504.197-1.242-.065-1.438-2.102-1.438-1.315 0-2.366-.327-2.366-.654 0-.392.92-.654 1.972-.654 1.511 0 1.972-.262 1.972-1.308s-.46-1.308-1.972-1.308c-1.051 0-1.972-.327-1.972-.654 0-.392.854-.654 1.906-.654 1.84 0 3.088-1.438 2.3-2.681-.592-.981-8.148-.719-8.543.262zM75.503 11.1c-2.168.85-3.022 2.354-3.088 5.1-.066 4.707 1.84 6.342 6.768 5.884 1.906-.131 2.234-.458 2.234-1.831 0-1.438-.263-1.635-2.103-1.438-1.577.131-2.168-.065-2.497-1.111-.592-2.027.657-3.661 2.76-3.661 1.249 0 1.906-.392 2.037-1.242.46-2.092-2.891-3.073-6.111-1.7zM83.586 10.839c-.329.262-.526 2.942-.526 5.95v5.492l2.102-.196c1.643-.131 2.235-.588 2.563-1.831l.394-1.634.526 1.765c.394 1.504.854 1.831 2.563 1.831 2.825 0 3.154-.458 1.971-2.746-.723-1.438-.854-2.158-.329-2.681.854-.85.92-3.727.131-4.969-.657-1.046-8.542-1.896-9.396-.981zm5.388 3.53c0 .719-.263 1.308-.657 1.308-.329 0-.657-.588-.657-1.308s.329-1.308.657-1.308c.394 0 .657.588.657 1.308zM95.348 10.904c-.263.196-.46 2.877-.46 5.884v5.427h4.271c4.14 0 4.271-.065 4.271-1.635 0-1.373-.329-1.634-1.971-1.634-1.051 0-1.972-.327-1.972-.654 0-.392.723-.654 1.643-.654 1.183 0 1.642-.327 1.642-1.308s-.46-1.308-1.642-1.308c-.92 0-1.643-.327-1.643-.654 0-.392.92-.654 1.972-.654 1.642 0 1.971-.262 1.971-1.635 0-1.569-.197-1.634-3.811-1.634-2.103 0-4.074.196-4.271.458zM108.622 10.839c-1.183.327-4.206 9.023-3.615 10.461.526 1.308 3.483 1.177 4.272-.196.591-1.111.657-1.111 1.84 0 1.512 1.308 4.797 1.504 4.797.262 0-.392-.658-3.008-1.512-5.688-1.314-4.315-1.708-4.904-3.088-5.034-.92 0-2.103.065-2.694.196zm1.84 5.949c-.197.654-.329.262-.329-.785 0-1.111.131-1.569.329-1.177.131.458.131 1.373 0 1.961zM118.085 10.904c-.592.196-.854 2.027-.854 5.819v5.492h1.906c1.642 0 1.971-.327 2.234-1.831.263-1.7.263-1.7.788-.327.263.85.92 1.504 1.38 1.504.526 0 1.249-.654 1.577-1.504.526-1.373.592-1.373.592.392.066 1.635.263 1.831 2.103 1.635l2.037-.196.066-5.427c.131-5.034.065-5.427-1.315-5.754-2.103-.523-3.877.719-4.468 3.138l-.46 2.158-.723-2.288c-.92-3.073-2.3-3.857-4.863-2.811zM9.2 11.558c-.197.262-.394 1.111-.394 1.961 0 1.504.066 1.504 7.557 1.504s7.557 0 7.557-1.504c0-2.223-.591-2.485-2.694-1.438-2.366 1.242-7.36 1.242-9.725 0-1.051-.523-2.037-.719-2.3-.523zM7.294 17.377c-1.051 1.111.723 1.569 5.848 1.569h5.52v2.288c0 1.242.329 2.288.657 2.288.394 0 .657-.981.657-2.223 0-2.158.131-2.288 2.628-2.485 1.446-.131 2.628-.523 2.628-.85 0-.719-17.217-1.308-17.939-.588z"/><path fill="#d41443" style="fill:var(--color2,#d41443)" d="M8.805 23.13c0 3.596 1.249 4.315 7.557 4.315s7.557-.719 7.557-4.315c0-1.569-.329-2.223-.986-2.223-.591 0-.986.588-.986 1.569 0 3.661-4.994 3.988-5.717.392-.329-1.896-.526-1.961-3.877-1.961H8.805v2.223zM12.88 30.518c.394 2.092 7.097 1.896 7.097-.131 0-.719-.854-.981-3.68-.981-3.088 0-3.614.196-3.417 1.111z"/></symbol><symbol id="email" viewBox="0 0 32 32"><path d="M26.667 5.333H5.334A2.663 2.663 0 0 0 2.681 8l-.013 16c0 1.467 1.2 2.667 2.667 2.667h21.333c1.467 0 2.667-1.2 2.667-2.667V8c0-1.467-1.2-2.667-2.667-2.667zM26.133 11l-9.427 5.893a1.346 1.346 0 0 1-1.413 0L5.866 11a1.132 1.132 0 1 1 1.2-1.92l8.933 5.587 8.933-5.587a1.132 1.132 0 1 1 1.2 1.92z"/></symbol><symbol id="phone" viewBox="0 0 32 32"><path d="m24.882 19.773-3.268-.373a2.561 2.561 0 0 0-2.11.733L17.137 22.5a19.357 19.357 0 0 1-8.478-8.478l2.38-2.38a2.561 2.561 0 0 0 .733-2.11l-.373-3.242a2.575 2.575 0 0 0-2.56-2.277H6.613c-1.454 0-2.663 1.209-2.573 2.663.682 10.987 9.469 19.761 20.443 20.443 1.454.09 2.663-1.119 2.663-2.573V22.32a2.549 2.549 0 0 0-2.264-2.547z"/></symbol><symbol id="person" viewBox="0 0 32 32"><path d="M16 16c2.947 0 5.333-2.387 5.333-5.333S18.946 5.334 16 5.334c-2.947 0-5.333 2.387-5.333 5.333S13.054 16 16 16zm0 2.667c-3.56 0-10.667 1.787-10.667 5.333v1.333c0 .733.6 1.333 1.333 1.333h18.667c.733 0 1.333-.6 1.333-1.333V24c0-3.547-7.107-5.333-10.667-5.333z"/></symbol><symbol id="icon-send" viewBox="0 0 32 32"><path fill="#fff" style="fill:var(--color1,#fff)" d="M32 0 0 18l10.227 3.788L26 7 14.002 23.186l.01.004-.012-.004V32l5.735-6.691L27 28l5-28z"/></symbol><symbol id="vector" viewBox="0 0 42 32"><path fill="#fff" style="fill:var(--color1,#fff);stroke:var(--color1,#fff)" stroke="#fff" stroke-width=".64" d="m6.263 15.205-.22-.21-3.307 3.132 11.651 11.114L38.864 5.89l-3.285-3.134-21.192 20.197-8.124-7.75z"/></symbol><symbol id="open-menu-icon" viewBox="0 0 48 32"><path d="M0 5.333V0h48v5.333H0zm0 13.334h48v-5.333H0v5.333zM0 32h48v-5.333H0V32z"/></symbol><symbol id="close-menu-icon" viewBox="0 0 32 32"><path d="M23.733 10.304 22.229 8.8l-5.963 5.963L10.303 8.8l-1.504 1.504 5.963 5.963-5.963 5.963 1.504 1.504 5.963-5.963 5.963 5.963 1.504-1.504-5.963-5.963 5.963-5.963z"/></symbol><symbol id="close-black" viewBox="0 0 32 32"><path d="m26.667 7.303-1.97-1.97-7.808 7.808-7.808-7.808-1.97 1.97 7.808 7.808-7.808 7.808 1.97 1.97 7.808-7.808 7.808 7.808 1.97-1.97-7.808-7.808 7.808-7.808z"/></symbol><symbol id="buy" viewBox="0 0 19 32"><path fill="none" stroke="#d41443" style="stroke:var(--color1,#d41443)" stroke-linejoin="round" stroke-linecap="round" stroke-width="6.4" d="M3.2 3.2 16 16 3.2 28.8"/></symbol><symbol id="burger" viewBox="0 0 46 32"><path fill="none" stroke="#d41443" style="stroke:var(--color1,#d41443)" stroke-width="2.286" d="M0 2.286h45.714M0 16h45.714M0 29.714h45.714"/></symbol><symbol id="menu-close" viewBox="0 0 32 32"><path fill="none" stroke="#fff" style="stroke:var(--color1,#fff)" stroke-width="2" d="m2.518 2 26.963 28M2 29.481 30 2.518"/></symbol></defs></svg>