<svg aria-hidden="true" style="width:0;height:0;position:absolute;overflow:hidden" xmlns="http://www.w3.org/2000/svg"><defs><symbol id="icon-house" viewBox="0 0 32 32"><path fill="#d31342" style="fill:var(--color1,#d31342)" d="M31.6 16.765a1.357 1.357 0 0 0-.122-2.032l-.003-.002L17.174 3.056a1.869 1.869 0 0 0-1.146-.389c-.448 0-.86.157-1.183.419l.004-.003L.5 15.35a1.348 1.348 0 0 0-.07 2.037l.001.001.36.347c.595.581 1.56.651 2.152.155l1.072-.896v13.117c0 .803.701 1.456 1.563 1.456h5.592c.864 0 1.563-.653 1.563-1.456v-9.176h7.133v9.208a1.42 1.42 0 0 0 1.421 1.421l.048-.001h-.002 5.928c.861 0 1.56-.651 1.56-1.456V17.179s.299.24.664.541c.363.299 1.131.059 1.709-.536l.408-.419z"/></symbol><symbol id="icon-arrow" viewBox="0 0 32 32"><path d="M22.618 15.127 11.709.582a1.454 1.454 0 1 0-2.327 1.745l10.254 13.672L9.382 29.672a1.454 1.454 0 0 0 1.162 2.327h.001c.442 0 .879-.201 1.165-.582l10.909-14.546c.182-.24.291-.544.291-.873s-.109-.633-.294-.876l.003.004z"/></symbol></defs></svg>