
<svg aria-hidden="true" style="position: absolute; width: 0; height: 0; overflow: hidden;" version="1.1" xmlns="http://www.w3.org/2000/svg" xmlns:xlink="http://www.w3.org/1999/xlink">
<defs>
<symbol id="icon-facebook" viewBox="0 0 16 32">
<path  d="M14.143 15.972h-4.034v14.865h-6.112v-14.865h-2.907v-5.224h2.907v-3.381c0-2.418 1.142-6.203 6.166-6.203l4.527 0.019v5.071h-3.285c-0.539 0-1.296 0.271-1.296 1.424v3.075h4.567l-0.534 5.219z"></path>
</symbol>

<!-- Модалка и хедер -->
<symbol id="logo" viewBox="0 0 130 32">
<path fill="#fff" style="fill: var(--color1, #fff)" d="M32 16c0 8.837-7.017 16-15.673 16s-15.673-7.163-15.673-16c0-8.837 7.017-16 15.673-16s15.673 7.163 15.673 16z"></path>
<path fill="#d41443" style="fill: var(--color2, #d41443)" d="M12.162 0.565c-7.601 2.254-12.162 8.115-12.162 15.521 0 6.054 3.173 11.335 8.395 13.976 2.71 1.352 3.107 0.386 0.595-1.481-1.785-1.417-2.115-2.061-2.115-4.444 0-1.674-0.397-3.027-0.991-3.542-1.19-0.966-1.322-3.478-0.132-4.379 0.463-0.386 0.925-1.675 0.992-2.834 0.33-4.251 5.024-8.244 9.717-8.244s9.386 3.993 9.717 8.244c0.066 1.159 0.529 2.447 0.991 2.834 1.19 0.902 1.058 3.413-0.132 4.379-0.595 0.515-0.992 1.868-0.992 3.542 0 2.383-0.33 3.027-2.115 4.444-2.776 2.125-1.983 2.898 1.124 1.030 4.363-2.641 7.601-8.372 7.601-13.46 0-10.176-10.84-18.419-20.491-15.586z"></path>
<path fill="#d41443" style="fill: var(--color2, #d41443)" d="M12.945 7.504c-1.183 0.523-2.168 1.177-2.168 1.569 0 0.719 3.548 2.027 5.586 2.027s5.585-1.308 5.585-2.027c0-0.785-4.074-2.55-5.717-2.55-0.657 0.065-2.168 0.458-3.286 0.981z"></path>
<path fill="#d41443" style="fill: var(--color2, #d41443)" d="M46.787 10.904c-0.986 0.261-1.183 1.111-1.183 5.819v5.492h4.666l-0.197-5.688c-0.197-5.95-0.46-6.407-3.286-5.623z"></path>
<path fill="#d41443" style="fill: var(--color2, #d41443)" d="M54.475 11.231c-2.169 1.177-2.957 2.615-2.957 5.427 0 3.857 2.103 5.688 5.98 5.427 2.628-0.196 2.891-0.392 3.088-2.027s0.066-1.765-1.971-1.635c-2.103 0.196-2.169 0.065-2.169-2.092s0.131-2.288 2.037-2.092c1.577 0.131 2.169-0.131 2.431-1.111 0.131-0.654 0-1.569-0.394-1.961-0.92-0.915-4.337-0.915-6.046 0.065z"></path>
<path fill="#d41443" style="fill: var(--color2, #d41443)" d="M62.295 11.296c-0.197 0.523-0.263 3.073-0.131 5.754l0.197 4.838h4.271c3.943 0 4.272-0.131 4.468-1.504 0.197-1.242-0.065-1.438-2.102-1.438-1.315 0-2.366-0.327-2.366-0.654 0-0.392 0.92-0.654 1.972-0.654 1.511 0 1.972-0.262 1.972-1.308s-0.46-1.308-1.972-1.308c-1.051 0-1.972-0.327-1.972-0.654 0-0.392 0.854-0.654 1.906-0.654 1.84 0 3.088-1.438 2.3-2.681-0.592-0.981-8.148-0.719-8.543 0.262z"></path>
<path fill="#d41443" style="fill: var(--color2, #d41443)" d="M75.503 11.1c-2.168 0.85-3.022 2.354-3.088 5.1-0.066 4.707 1.84 6.342 6.768 5.884 1.906-0.131 2.234-0.458 2.234-1.831 0-1.438-0.263-1.635-2.103-1.438-1.577 0.131-2.168-0.065-2.497-1.111-0.592-2.027 0.657-3.661 2.76-3.661 1.249 0 1.906-0.392 2.037-1.242 0.46-2.092-2.891-3.073-6.111-1.7z"></path>
<path fill="#d41443" style="fill: var(--color2, #d41443)" d="M83.586 10.839c-0.329 0.262-0.526 2.942-0.526 5.95v5.492l2.102-0.196c1.643-0.131 2.235-0.588 2.563-1.831l0.394-1.634 0.526 1.765c0.394 1.504 0.854 1.831 2.563 1.831 2.825 0 3.154-0.458 1.971-2.746-0.723-1.438-0.854-2.158-0.329-2.681 0.854-0.85 0.92-3.727 0.131-4.969-0.657-1.046-8.542-1.896-9.396-0.981zM88.974 14.369c0 0.719-0.263 1.308-0.657 1.308-0.329 0-0.657-0.588-0.657-1.308s0.329-1.308 0.657-1.308c0.394 0 0.657 0.588 0.657 1.308z"></path>
<path fill="#d41443" style="fill: var(--color2, #d41443)" d="M95.348 10.904c-0.263 0.196-0.46 2.877-0.46 5.884v5.427h4.271c4.14 0 4.271-0.065 4.271-1.635 0-1.373-0.329-1.634-1.971-1.634-1.051 0-1.972-0.327-1.972-0.654 0-0.392 0.723-0.654 1.643-0.654 1.183 0 1.642-0.327 1.642-1.308s-0.46-1.308-1.642-1.308c-0.92 0-1.643-0.327-1.643-0.654 0-0.392 0.92-0.654 1.972-0.654 1.642 0 1.971-0.262 1.971-1.635 0-1.569-0.197-1.634-3.811-1.634-2.103 0-4.074 0.196-4.271 0.458z"></path>
<path fill="#d41443" style="fill: var(--color2, #d41443)" d="M108.622 10.839c-1.183 0.327-4.206 9.023-3.615 10.461 0.526 1.308 3.483 1.177 4.272-0.196 0.591-1.111 0.657-1.111 1.84 0 1.512 1.308 4.797 1.504 4.797 0.262 0-0.392-0.658-3.008-1.512-5.688-1.314-4.315-1.708-4.904-3.088-5.034-0.92 0-2.103 0.065-2.694 0.196zM110.462 16.788c-0.197 0.654-0.329 0.262-0.329-0.785 0-1.111 0.131-1.569 0.329-1.177 0.131 0.458 0.131 1.373 0 1.961z"></path>
<path fill="#d41443" style="fill: var(--color2, #d41443)" d="M118.085 10.904c-0.592 0.196-0.854 2.027-0.854 5.819v5.492h1.906c1.642 0 1.971-0.327 2.234-1.831 0.263-1.7 0.263-1.7 0.788-0.327 0.263 0.85 0.92 1.504 1.38 1.504 0.526 0 1.249-0.654 1.577-1.504 0.526-1.373 0.592-1.373 0.592 0.392 0.066 1.635 0.263 1.831 2.103 1.635l2.037-0.196 0.066-5.427c0.131-5.034 0.065-5.427-1.315-5.754-2.103-0.523-3.877 0.719-4.468 3.138l-0.46 2.158-0.723-2.288c-0.92-3.073-2.3-3.857-4.863-2.811z"></path>
<path fill="#d41443" style="fill: var(--color2, #d41443)" d="M9.2 11.558c-0.197 0.262-0.394 1.111-0.394 1.961 0 1.504 0.066 1.504 7.557 1.504s7.557 0 7.557-1.504c0-2.223-0.591-2.485-2.694-1.438-2.366 1.242-7.36 1.242-9.725 0-1.051-0.523-2.037-0.719-2.3-0.523z"></path>
<path fill="#d41443" style="fill: var(--color2, #d41443)" d="M7.294 17.377c-1.051 1.111 0.723 1.569 5.848 1.569h5.52v2.288c0 1.242 0.329 2.288 0.657 2.288 0.394 0 0.657-0.981 0.657-2.223 0-2.158 0.131-2.288 2.628-2.485 1.446-0.131 2.628-0.523 2.628-0.85 0-0.719-17.217-1.308-17.939-0.588z"></path>
<path fill="#d41443" style="fill: var(--color2, #d41443)" d="M8.805 23.13c0 3.596 1.249 4.315 7.557 4.315s7.557-0.719 7.557-4.315c0-1.569-0.329-2.223-0.986-2.223-0.591 0-0.986 0.588-0.986 1.569 0 3.661-4.994 3.988-5.717 0.392-0.329-1.896-0.526-1.961-3.877-1.961h-3.548v2.223z"></path>
<path fill="#d41443" style="fill: var(--color2, #d41443)" d="M12.88 30.518c0.394 2.092 7.097 1.896 7.097-0.131 0-0.719-0.854-0.981-3.68-0.981-3.088 0-3.614 0.196-3.417 1.111z"></path>
</symbol>
<symbol id="email" viewBox="0 0 32 32">
<path d="M26.667 5.333h-21.333c-1.467 0-2.653 1.2-2.653 2.667l-0.013 16c0 1.467 1.2 2.667 2.667 2.667h21.333c1.467 0 2.667-1.2 2.667-2.667v-16c0-1.467-1.2-2.667-2.667-2.667zM26.133 11l-9.427 5.893c-0.427 0.267-0.987 0.267-1.413 0l-9.427-5.893c-0.333-0.213-0.533-0.573-0.533-0.96 0-0.893 0.973-1.427 1.733-0.96l8.933 5.587 8.933-5.587c0.76-0.467 1.733 0.067 1.733 0.96 0 0.387-0.2 0.747-0.533 0.96z"></path>
</symbol>
<symbol id="phone" viewBox="0 0 32 32">
<path d="M24.882 19.773l-3.268-0.373c-0.785-0.090-1.557 0.18-2.11 0.733l-2.367 2.367c-3.641-1.853-6.626-4.825-8.478-8.478l2.38-2.38c0.553-0.553 0.823-1.325 0.733-2.11l-0.373-3.242c-0.154-1.299-1.248-2.277-2.56-2.277h-2.226c-1.454 0-2.663 1.209-2.573 2.663 0.682 10.987 9.469 19.761 20.443 20.443 1.454 0.090 2.663-1.119 2.663-2.573v-2.226c0.013-1.3-0.965-2.393-2.264-2.547z"></path>
</symbol>
<symbol id="person" viewBox="0 0 32 32">
<path d="M16 16c2.947 0 5.333-2.387 5.333-5.333s-2.387-5.333-5.333-5.333c-2.947 0-5.333 2.387-5.333 5.333s2.387 5.333 5.333 5.333zM16 18.667c-3.56 0-10.667 1.787-10.667 5.333v1.333c0 0.733 0.6 1.333 1.333 1.333h18.667c0.733 0 1.333-0.6 1.333-1.333v-1.333c0-3.547-7.107-5.333-10.667-5.333z"></path>
</symbol>
<symbol id="icon-send" viewBox="0 0 32 32">
<path fill="#fff" style="fill: var(--color1, #fff)" d="M32 0l-32 18 10.227 3.788 15.773-14.788-11.998 16.186 0.010 0.004-0.012-0.004v8.814l5.735-6.691 7.265 2.691 5-28z"></path>
</symbol>
<symbol id="vector" viewBox="0 0 42 32">
<path fill="#fff" style="fill:var(--color1, #fff);stroke:var(--color1, #fff)" stroke="#fff" stroke-width=".64" d="m6.263 15.205-.22-.21-3.307 3.132 11.651 11.114L38.864 5.89l-3.285-3.134-21.192 20.197-8.124-7.75z"/>
</symbol>
<symbol id="open-menu-icon" viewBox="0 0 48 32">
<path d="M0 5.333v-5.333h48v5.333h-48zM0 18.667h48v-5.333h-48v5.333zM0 32h48v-5.333h-48v5.333z"></path>
</symbol>
<symbol id="close-menu-icon" viewBox="0 0 32 32">
<path d="M23.733 10.304l-1.504-1.504-5.963 5.963-5.963-5.963-1.504 1.504 5.963 5.963-5.963 5.963 1.504 1.504 5.963-5.963 5.963 5.963 1.504-1.504-5.963-5.963 5.963-5.963z"></path>
</symbol>
<symbol id="close-black" viewBox="0 0 32 32">
<path d="M26.667 7.303l-1.97-1.97-7.808 7.808-7.808-7.808-1.97 1.97 7.808 7.808-7.808 7.808 1.97 1.97 7.808-7.808 7.808 7.808 1.97-1.97-7.808-7.808 7.808-7.808z"></path>
</symbol>
<symbol id="buy" viewBox="0 0 19 32">
<path fill="none" stroke="#d41443" style="stroke: var(--color1, #d41443)" stroke-linejoin="round" stroke-linecap="round" stroke-miterlimit="4" stroke-width="6.4" d="M3.2 3.2l12.8 12.8-12.8 12.8"></path>
</symbol>
<symbol id="burger" viewBox="0 0 46 32">
<path fill="none" stroke="#d41443" style="stroke: var(--color1, #d41443)" stroke-linejoin="miter" stroke-linecap="butt" stroke-miterlimit="4" stroke-width="2.2857" d="M0 2.286h45.714"></path>
<path fill="none" stroke="#d41443" style="stroke: var(--color1, #d41443)" stroke-linejoin="miter" stroke-linecap="butt" stroke-miterlimit="4" stroke-width="2.2857" d="M0 16h45.714"></path>
<path fill="none" stroke="#d41443" style="stroke: var(--color1, #d41443)" stroke-linejoin="miter" stroke-linecap="butt" stroke-miterlimit="4" stroke-width="2.2857" d="M0 29.714h45.714"></path>
</symbol>
<symbol id="menu-close" viewBox="0 0 32 32">
<path fill="none" stroke="#fff" style="stroke: var(--color1, #fff)" stroke-linejoin="miter" stroke-linecap="butt" stroke-miterlimit="4" stroke-width="2" d="M2.518 2l26.963 28"></path>
<path fill="none" stroke="#fff" style="stroke: var(--color1, #fff)" stroke-linejoin="miter" stroke-linecap="butt" stroke-miterlimit="4" stroke-width="2" d="M2 29.481l28-26.963"></path>
</symbol>

</defs>
</svg>
